<svg id="Layer_1" data-name="Layer 1" xmlns="http://www.w3.org/2000/svg" viewBox="0 0 750 420"><defs><style>.cls-1{fill:#fff;}.cls-2,.cls-4,.cls-5,.cls-6,.cls-7,.cls-8{fill:none;stroke:#0a2a42;stroke-linecap:round;stroke-linejoin:round;}.cls-2{stroke-width:0.78px;}.cls-3{fill:#00a9fa;}.cls-4{stroke-width:0.77px;}.cls-5{stroke-width:0.88px;}.cls-6{stroke-width:0.74px;}.cls-7{stroke-width:0.88px;}.cls-8{stroke-width:0.75px;}.cls-9{fill:#263238;}.cls-10{fill:#fafafa;}.cls-11{fill:#1a2e35;}.cls-12{opacity:0.2;}.cls-13{fill:#ffd2be;}.cls-14{fill:#e09074;}.cls-15{opacity:0.78;}.cls-16{fill:#375a64;}</style></defs><circle class="cls-1" cx="242.95" cy="177.81" r="36.15" transform="translate(-42.47 273.6) rotate(-54.75)"/><circle class="cls-2" cx="242.95" cy="177.81" r="36.15" transform="translate(-42.47 273.6) rotate(-54.75)"/><path class="cls-2" d="M279,175.18a74.16,74.16,0,0,0,60.53-19.92"/><path class="cls-3" d="M254.72,197a3.09,3.09,0,0,1-4.28-.94l-4.18-6.52a14.57,14.57,0,1,1,5.23-3.35l4.17,6.53A3.09,3.09,0,0,1,254.72,197Zm-11.23-31.12a10.34,10.34,0,1,0,7.88,12.31A10.33,10.33,0,0,0,243.49,165.88Z"/><path class="cls-2" d="M253.46,168.17a14.4,14.4,0,0,1-2,18l4.17,6.53a3.1,3.1,0,0,1-5.22,3.34l-4.18-6.52a14.47,14.47,0,1,1,3-25.64m-5.77,2a10.34,10.34,0,1,0,7.88,12.31A10.33,10.33,0,0,0,243.49,165.88Z"/><circle class="cls-1" cx="337.35" cy="40.57" r="31.28" transform="translate(0.77 87.09) rotate(-14.73)"/><circle class="cls-4" cx="337.35" cy="40.57" r="31.28" transform="translate(0.77 87.09) rotate(-14.73)"/><path class="cls-4" d="M331.88,71.38A50.88,50.88,0,0,0,333,102.57c7.22,19.41,24.13,27.25,27.42,28.69"/><path class="cls-3" d="M352.61,37l-8.22,6,3.14,9.74a1.27,1.27,0,0,1-.46,1.43,1.24,1.24,0,0,1-1.49,0l-8.23-6-8.22,6a1.25,1.25,0,0,1-1.49,0,1.27,1.27,0,0,1-.46-1.43L330.32,43l-8.22-6a1.28,1.28,0,0,1,.74-2.32H333L336.15,25a1.27,1.27,0,0,1,2.41,0l3.14,9.74h10.17a1.28,1.28,0,0,1,.74,2.32Z"/><path class="cls-4" d="M348.87,34.69h3a1.28,1.28,0,0,1,.74,2.32l-8.22,6,3.14,9.74a1.27,1.27,0,0,1-.46,1.43,1.24,1.24,0,0,1-1.49,0l-8.23-6-8.22,6a1.25,1.25,0,0,1-1.49,0,1.27,1.27,0,0,1-.46-1.43L330.32,43l-8.22-6a1.28,1.28,0,0,1,.74-2.32H333L336.15,25a1.27,1.27,0,0,1,2.41,0l1,3.08"/><path class="cls-4" d="M341.07,32.73l.63,2h3.1"/><circle class="cls-1" cx="276.06" cy="100.18" r="34.79"/><circle class="cls-5" cx="276.06" cy="100.18" r="34.79"/><path class="cls-5" d="M297.69,127.42a62.69,62.69,0,0,0,26.12,17.34A61.53,61.53,0,0,0,342.42,148"/><path class="cls-3" d="M279,100.18a3,3,0,1,0-3,3A3,3,0,0,0,279,100.18Z"/><path class="cls-3" d="M292.29,100.18a3,3,0,1,0-3,3A3,3,0,0,0,292.29,100.18Z"/><path class="cls-3" d="M265.79,100.18a3,3,0,1,0-3,3A3,3,0,0,0,265.79,100.18Z"/><path class="cls-5" d="M276.06,97.2a3,3,0,1,0,3,3"/><path class="cls-5" d="M289.31,97.2a3,3,0,1,0,3,3"/><path class="cls-5" d="M262.81,97.2a3,3,0,1,0,3,3"/><circle class="cls-1" cx="444.64" cy="48.75" r="31.42" transform="translate(0.47 101.58) rotate(-13.04)"/><circle class="cls-6" cx="444.64" cy="48.75" r="31.42" transform="translate(0.47 101.58) rotate(-13.04)"/><path class="cls-6" d="M373.17,138.14c-.94-6.07-3.83-29.49,10.91-52.11a74,74,0,0,1,31-26.61"/><path class="cls-3" d="M432.27,35.86a4.45,4.45,0,0,0-.38.48A6.07,6.07,0,0,0,430.46,42a25.81,25.81,0,0,0,22.93,20.74l.73,0a6.76,6.76,0,0,0,3.52-.92,5.09,5.09,0,0,0,1.25-1l1-1.08a5.15,5.15,0,0,0-.37-7.26L457.86,51a5.14,5.14,0,0,0-3.45-1.33,5.2,5.2,0,0,0-3.82,1.69l-1,1.08a5.16,5.16,0,0,0-.91,1.41,18.2,18.2,0,0,1-9-8.28,5.15,5.15,0,0,0,1.88-1.31l1-1.08a5.14,5.14,0,0,0-.37-7.26l-1.64-1.49a5.12,5.12,0,0,0-3.45-1.33,5.2,5.2,0,0,0-3.82,1.69Z"/><path class="cls-6" d="M442.15,35.91l-1.64-1.49a5.12,5.12,0,0,0-3.45-1.33,5.2,5.2,0,0,0-3.82,1.69l-1,1.08a4.45,4.45,0,0,0-.38.48A6.07,6.07,0,0,0,430.46,42a25.81,25.81,0,0,0,22.93,20.74l.73,0a6.76,6.76,0,0,0,3.52-.92,5.09,5.09,0,0,0,1.25-1l1-1.08a5.15,5.15,0,0,0-.37-7.26L457.86,51a5.14,5.14,0,0,0-3.45-1.33,5.2,5.2,0,0,0-3.82,1.69l-1,1.08a5.16,5.16,0,0,0-.91,1.41,18.2,18.2,0,0,1-9-8.28,5.15,5.15,0,0,0,1.88-1.31l1-1.08a5.12,5.12,0,0,0,1.32-3.71"/><circle class="cls-1" cx="512.89" cy="100.45" r="34.53"/><circle class="cls-7" cx="512.89" cy="100.45" r="34.53"/><path class="cls-7" d="M409.21,136.06c9.82,1.47,30.22,3,51.94-7a87.35,87.35,0,0,0,20.72-13.42"/><path class="cls-3" d="M502,107.24a1.44,1.44,0,0,1-1.46,1.46H491a1.42,1.42,0,0,1-1.09-.48,1.46,1.46,0,0,1,.08-2.07L497.88,99A3.33,3.33,0,0,0,499,96.48a3.42,3.42,0,0,0-.88-2.31,3.36,3.36,0,0,0-2.55-1.11,3.5,3.5,0,0,0-2.31.87l-.82.75a1.47,1.47,0,1,1-2-2.18l.82-.75a6.39,6.39,0,0,1,9,.46A6.24,6.24,0,0,1,502,96.48a6.4,6.4,0,0,1-2.1,4.73l-5,4.54h5.66A1.47,1.47,0,0,1,502,107.24Z"/><path class="cls-3" d="M519,103.76a1.46,1.46,0,0,1-1.49,1.46h-.26v2a1.47,1.47,0,0,1-2.93,0v-2H506a1.31,1.31,0,0,1-.9-.32,1.42,1.42,0,0,1-.24-2l9.83-12.22s0,0,.05,0a.31.31,0,0,0,.08-.11.34.34,0,0,0,.14-.08s.08-.05.1-.08a.28.28,0,0,1,.16,0c0-.06.06-.08.11-.08s.08,0,.16-.06a.22.22,0,0,0,.11,0H516a.3.3,0,0,0,.13,0s.11,0,.16.06l.1,0c.06.06.11.08.14.11l.13.08a0,0,0,0,1,0,0s.08,0,.08,0l.1.11a.39.39,0,0,1,.08.1.54.54,0,0,1,.11.13.27.27,0,0,0,0,.11.91.91,0,0,1,.06.16s0,.08,0,.11a.26.26,0,0,1,0,.16s0,.08,0,.13V102.3h.26A1.48,1.48,0,0,1,519,103.76Zm-4.68-8-5.28,6.56h5.28Z"/><path class="cls-3" d="M523.49,107.24V91.57A1.44,1.44,0,0,1,525,90.11a1.46,1.46,0,0,1,1.49,1.46v6.37h6.88V91.57a1.44,1.44,0,0,1,1.46-1.46,1.46,1.46,0,0,1,1.49,1.46v15.67a1.46,1.46,0,0,1-1.49,1.46,1.44,1.44,0,0,1-1.46-1.46v-6.37h-6.88v6.37A1.46,1.46,0,0,1,525,108.7,1.44,1.44,0,0,1,523.49,107.24Z"/><path class="cls-7" d="M502,96.48a6.4,6.4,0,0,1-2.1,4.73l-5,4.54h5.66a1.47,1.47,0,0,1,1.46,1.49,1.44,1.44,0,0,1-1.46,1.46H491a1.42,1.42,0,0,1-1.09-.48,1.46,1.46,0,0,1,.08-2.07L497.88,99A3.33,3.33,0,0,0,499,96.48a3.42,3.42,0,0,0-.88-2.31,3.36,3.36,0,0,0-2.55-1.11,3.5,3.5,0,0,0-2.31.87l-.82.75a1.47,1.47,0,1,1-2-2.18l.82-.75a6.39,6.39,0,0,1,9,.46"/><path class="cls-7" d="M517.28,97.73v4.57h.26a1.48,1.48,0,0,1,1.49,1.46,1.46,1.46,0,0,1-1.49,1.46h-.26v2a1.47,1.47,0,0,1-2.93,0v-2H506a1.31,1.31,0,0,1-.9-.32,1.42,1.42,0,0,1-.24-2l9.83-12.22s0,0,.05,0a.31.31,0,0,0,.08-.11.34.34,0,0,0,.14-.08s.08-.05.1-.08a.28.28,0,0,1,.16,0c0-.06.06-.08.11-.08s.08,0,.16-.06a.22.22,0,0,0,.11,0H516a.3.3,0,0,0,.13,0s.11,0,.16.06l.1,0c.06.06.11.08.14.11l.13.08a0,0,0,0,1,0,0s.08,0,.08,0l.1.11a.39.39,0,0,1,.08.1.54.54,0,0,1,.11.13.27.27,0,0,0,0,.11.91.91,0,0,1,.06.16s0,.08,0,.11a.26.26,0,0,1,0,.16s0,.08,0,.13v1.45m-2.93,2.8-5.28,6.56h5.28Z"/><path class="cls-7" d="M526.44,97.94h6.88V91.57a1.44,1.44,0,0,1,1.46-1.46,1.46,1.46,0,0,1,1.49,1.46v2.59m0,8.14v4.94a1.46,1.46,0,0,1-1.49,1.46,1.44,1.44,0,0,1-1.46-1.46v-6.37h-6.88v6.37A1.46,1.46,0,0,1,525,108.7a1.44,1.44,0,0,1-1.46-1.46V91.57A1.44,1.44,0,0,1,525,90.11a1.46,1.46,0,0,1,1.49,1.46v3.11"/><circle class="cls-1" cx="555.33" cy="166.73" r="33.56"/><circle class="cls-8" cx="555.33" cy="166.73" r="33.56"/><path class="cls-3" d="M572.81,154.39H554.44A3.41,3.41,0,0,0,551,157.8v11.77a3.41,3.41,0,0,0,3.41,3.4h11.94l6.16,4.14a.72.72,0,0,0,.37.11.68.68,0,0,0,.31-.08.67.67,0,0,0,.35-.58v-3.91c1.19-.51,2.64-1.61,2.64-3.08V157.8A3.41,3.41,0,0,0,572.81,154.39Z"/><path class="cls-8" d="M572.81,154.39H554.44A3.41,3.41,0,0,0,551,157.8v11.77a3.41,3.41,0,0,0,3.41,3.4h11.94l6.16,4.14a.72.72,0,0,0,.37.11.68.68,0,0,0,.31-.08.67.67,0,0,0,.35-.58v-3.91c1.19-.51,2.64-1.61,2.64-3.08V157.8A3.41,3.41,0,0,0,572.81,154.39Z"/><path class="cls-8" d="M571.35,159.82h-15.5"/><path class="cls-8" d="M571.35,163.44h-15.5"/><path class="cls-8" d="M571.35,166.94h-15.5"/><path class="cls-3" d="M535.82,163.78v11.77c0,1.48,1.44,2.57,2.64,3.08v3.92a.66.66,0,0,0,.35.58.64.64,0,0,0,.31.07.66.66,0,0,0,.36-.11l6.16-4.13h12a3.41,3.41,0,0,0,3.4-3.41V163.78a3.4,3.4,0,0,0-3.4-3.4H539.22A3.4,3.4,0,0,0,535.82,163.78Z"/><path class="cls-8" d="M535.82,163.78v11.77c0,1.48,1.44,2.57,2.64,3.08v3.92a.66.66,0,0,0,.35.58.64.64,0,0,0,.31.07.66.66,0,0,0,.36-.11l6.16-4.13h12a3.41,3.41,0,0,0,3.4-3.41V163.78a3.4,3.4,0,0,0-3.4-3.4H539.22A3.4,3.4,0,0,0,535.82,163.78Z"/><path class="cls-8" d="M556.17,165.81H540.68"/><path class="cls-8" d="M556.17,169.43H540.68"/><path class="cls-8" d="M556.17,172.93H540.68"/><path class="cls-8" d="M433.88,161.89s43,24,88.27,9.9"/><g id="freepik--Desk--inject-87"><path class="cls-9" d="M571.67,406.84c0,.13-91.91.25-205.27.25s-205.28-.12-205.28-.25,91.89-.25,205.28-.25S571.67,406.71,571.67,406.84Z"/></g><path class="cls-10" d="M346,284.11l10.7,39.14,39.08-52.78-9.2,138.38h-55.8l-16.27.78s2.41-21.81,3.41-34.12c.19-2.34,1-16.06,4.95-29C331.21,319.35,346,284.11,346,284.11Z"/><path class="cls-11" d="M358.61,345.35c.13.17-6.17,5.25-14.08,11.34s-14.44,10.88-14.57,10.7S336.12,362.13,344,356,358.47,345.17,358.61,345.35Z"/><polygon class="cls-3" points="455.74 265.03 425.35 250.41 413.43 236.24 396.57 253.77 351.87 408.47 428.53 408.47 438.36 381.93 455.74 279.42 455.74 265.03"/><path class="cls-3" d="M319,410.71l-2.06-32.83,92.61-15.69s15.82-76.41,25.56-88.93c9-11.56,20.72-7.55,20.72-7.55s10.57,7.24,8,35c-1.32,14.52-6.63,64.83-8.55,83a28.9,28.9,0,0,1-4.22,12.27h0a29,29,0,0,1-24.64,13.69Z"/><path class="cls-11" d="M424.66,381.27c-.14,0-.27-1.46-.94-3.7A22,22,0,0,0,412.3,364c-2.1-1-3.53-1.42-3.49-1.55a10.06,10.06,0,0,1,3.73,1,20.25,20.25,0,0,1,11.73,13.92A10.14,10.14,0,0,1,424.66,381.27Z"/><g class="cls-12"><path d="M423,252.64a145.19,145.19,0,0,1-5.52,28.53l-7-2.05c2.86,4.1,3.21,9.53,2.08,14.4s-3.59,9.29-6,13.66L372,369.26l34.84-79.1-.91-14.62,6.71-1.44Z"/></g><g class="cls-12"><path d="M409.23,361.28A18.46,18.46,0,0,1,428.17,375a4.79,4.79,0,0,1,.06,3,2,2,0,0,1-2.42,1.24,3.13,3.13,0,0,1-1.36-1.8,28.06,28.06,0,0,0-16.1-15"/></g><path class="cls-11" d="M372.24,368.51a7.06,7.06,0,0,1,.47-1.27c.37-.88.87-2.07,1.49-3.57,1.36-3.17,3.28-7.62,5.64-13.09l18.88-43.06c2.69-6.1,5.3-12,7.74-17.52l0,.18c-.31-5.19-.6-10.09-.87-14.62v-.3l.29-.07,6.71-1.4-.22.17,8.35-16.89,2.34-4.62.64-1.2a2,2,0,0,1,.24-.4s0,.16-.16.44-.32.74-.55,1.24l-2.18,4.7-8.1,17-.07.14-.15,0-6.7,1.46.27-.36c.3,4.52.62,9.42.95,14.62v.09l0,.09-7.72,17.52-19.09,43-5.88,13-1.63,3.51A8.89,8.89,0,0,1,372.24,368.51Z"/><path class="cls-11" d="M318.92,409.63a2.29,2.29,0,0,1-.08-.54c0-.41-.08-.94-.14-1.61-.1-1.46-.25-3.53-.45-6.17-.35-5.42-.87-13.16-1.5-22.71v-.26l.25,0L384,366l24.7-4.49-.31.29,13.51-51.33,4-14.94q.71-2.55,1.11-4l.3-1c.07-.23.11-.34.13-.34a1.68,1.68,0,0,1-.06.36c-.06.27-.14.62-.24,1-.23,1-.56,2.31-1,4-.89,3.55-2.18,8.64-3.78,15-3.3,12.83-7.92,30.75-13.24,51.41l-.06.24-.25,0-24.69,4.51-67,12.08.24-.31c.52,9.56,1,17.31,1.24,22.73.13,2.64.22,4.72.29,6.18,0,.67.05,1.21.06,1.61A2.82,2.82,0,0,1,318.92,409.63Z"/><path class="cls-11" d="M451.07,262.46c0,.15-1.55.38-3.92,1.27a25,25,0,0,0-14,13.09c-1,2.31-1.37,3.86-1.51,3.83s0-.41.12-1.12a15.65,15.65,0,0,1,.86-2.93A23,23,0,0,1,447,263.18a16,16,0,0,1,3-.67A3.32,3.32,0,0,1,451.07,262.46Z"/><path class="cls-13" d="M276,227.65c2.75-5.05,1.53-25.48,5.76-24.76,5.4.92.41,22.39.07,24.35s2.49,2.44,2.7.66c.31-2.56,3.45-27.54,8.76-26.13,2.95.77,1.59,6.15,1.59,6.15s-4.56,24.21-2,24.79,4.46-13.38,5.59-18.46c1.09-4.87,4.26-7,5.46-4.4,1.77,3.77-1.62,16-2.63,20.86s-3.53,19,3.34,13.52,14.18-7.27,16.46-6.39,1.78,4.39-.86,5.08c-2.13.56-5.42,2.58-7.84,4.2a31.58,31.58,0,0,0-5.19,4.89,27.1,27.1,0,0,0-4.91,7.64A17.11,17.11,0,0,1,291.83,269h0l-4,19.08-26-5.57,5.79-20.18c2.1-13.26.94-31.09,1-39.2,0-12.93,1.71-13,3.2-12.68C275.09,211.2,273.33,232.59,276,227.65Z"/><path class="cls-14" d="M275.28,245a28.31,28.31,0,0,1,3.45,1.61,14.23,14.23,0,0,1,6.64,9.65l.09.44.37-.21a21.47,21.47,0,0,1,6.72-2.55c1.78-.34,2.87-.38,2.87-.47a8.8,8.8,0,0,0-2.93.07,19.39,19.39,0,0,0-7,2.39l.46.23a14.9,14.9,0,0,0-.81-2.87,14.67,14.67,0,0,0-2.85-4.46,13.91,13.91,0,0,0-3.37-2.62,11.41,11.41,0,0,0-2.65-1.06A3.26,3.26,0,0,0,275.28,245Z"/><path class="cls-14" d="M271.82,263.17c-.09.13,2.47,1.82,6.06,2.93s6.65,1.19,6.65,1-3-.53-6.46-1.63S271.91,263,271.82,263.17Z"/><polygon class="cls-13" points="365.85 244.38 346.01 284.11 356.71 323.25 385.2 293.14 413.28 240.97 365.85 244.38"/><path class="cls-3" d="M347.17,248.11S319,258.13,319,260h0c-5,3.91-21.57,44-26.84,51.59L277,333.83h0l12.65-49.39-27.83-8.19s-23.78,57.45-26.67,70.23a47,47,0,0,0,.45,22.92l.16-.14a26.46,26.46,0,0,0,10.42,14c11.81,7.57,22.83,9,34.11.66,6.39-4.72,13.69-10.42,20.37-15.74l1.76,41.47h15.37c0-2.33-.47-30.75-.47-30.75A160.7,160.7,0,0,0,322,358.44c1.4-9.79,24.3-74,24.3-74l17.78-34.24.42-12.67Z"/><path class="cls-11" d="M302.14,409.33A7.7,7.7,0,0,1,302,408c-.06-.92-.14-2.16-.23-3.72-.17-3.31-.41-8-.71-13.75-.53-11.72-1.26-27.88-2.07-46v-.1c.33-1.72.68-3.54,1-5.39,3.72-19,7.1-36.24,9.56-48.79,1.25-6.18,2.26-11.2,3-14.76.36-1.69.65-3,.86-4l.24-1c.06-.23.09-.35.11-.34a1.64,1.64,0,0,1,0,.36c0,.29-.1.63-.16,1.06-.18,1-.41,2.33-.71,4-.65,3.58-1.59,8.62-2.73,14.82-2.4,12.56-5.69,29.8-9.32,48.84-.36,1.84-.72,3.67-1.05,5.38v-.1c.71,18.11,1.35,34.27,1.81,46,.2,5.78.35,10.45.46,13.77,0,1.56.06,2.8.08,3.72A8.09,8.09,0,0,1,302.14,409.33Z"/><path class="cls-11" d="M317.91,372.52a7.35,7.35,0,0,1,.14-1.3c.14-.92.32-2.15.56-3.7.53-3.29,1.29-7.92,2.21-13.59,2-11.54,4.65-27.33,7.61-44.79,2-11.42,3.87-22.14,5.46-31.26v0l0,0,9.51-21.56c1.14-2.54,2.06-4.57,2.72-6l.74-1.58a2,2,0,0,1,.29-.52,3.24,3.24,0,0,1-.19.57c-.17.42-.38,1-.64,1.62l-2.54,6.1-9.24,21.68,0-.08-5.34,31.28L321.39,354c-1,5.66-1.87,10.27-2.47,13.55-.3,1.54-.53,2.76-.71,3.68A9.71,9.71,0,0,1,317.91,372.52Z"/><path class="cls-11" d="M263.87,367.91c-.11-.08,1.1-1.8,2.79-4.74a86.77,86.77,0,0,0,5.66-12,102,102,0,0,0,3.88-12.66c.78-3.3,1.14-5.38,1.27-5.36a4.84,4.84,0,0,1-.08,1.49c-.09.95-.3,2.32-.63,4a78.49,78.49,0,0,1-3.68,12.84,68.76,68.76,0,0,1-5.93,12,37.53,37.53,0,0,1-2.3,3.33C264.26,367.55,263.92,368,263.87,367.91Z"/><g class="cls-12"><path d="M266,365.62a1.72,1.72,0,0,0-1.19,2.42,2.58,2.58,0,0,0,2.69,1.24,5.47,5.47,0,0,0,2.74-1.5,18.74,18.74,0,0,0,4.79-8.36c2.38-7.55,2.5-15.6,2.59-23.51a96.2,96.2,0,0,1-11.55,29.26"/></g><g class="cls-12"><path d="M300.25,369.31c-4.77-7.59-6.31-16.45-5.69-25.39.85-12.05,6.7-23.08,11.08-34.34-2.52,11.84-3.95,23.6-6.24,35,0,0,1.22,16.92,1.25,24.44"/></g><g class="cls-12"><path d="M319.7,361.75c1.22-18,2.45-36.12,5.64-53.92a171.86,171.86,0,0,1,18.17-52c-2.28,7.15-9.27,22.16-9.27,22.16s-10.12,53.29-14.5,80.13"/></g><path class="cls-13" d="M317.43,382.49l2.52,28-13.21,0c-.35,0-5.74-.08-11.69-.19a81.08,81.08,0,0,1-13.41.36c-.37,0-.59-.08-.62-.14a10.65,10.65,0,0,1-2-.49h-.05v0c-1.2-.44-2.42-1.21-2.23-2.52.57-4,3-4.33,3-4.33l1.19-.09.1-.34c-1.81,0-3.34,0-4.15-.14-.37,0-.59-.08-.62-.14s-4.68-.55-4.32-3c.58-4,3-4.33,3-4.33s1.62-.12,3.85-.26c-1.87,0-3.45,0-4.28-.13a1.37,1.37,0,0,1-.62-.14s-4.69-.56-4.33-3c.58-4,3-4.34,3-4.34l3.19-.21c-1.52,0-2.77-.06-3.48-.13a1.37,1.37,0,0,1-.62-.14s-4.69-.56-4.33-3c.58-4,3-4.33,3-4.33s7.37-.52,12.42-.73c0,0,5.74-5.18,8-4.94,3.37.36,23,7.61,23,7.61Z"/><path class="cls-14" d="M292.64,402.25c0,.24-2.95.52-6.55.63s-6.5,0-6.48-.2,2.95-.52,6.55-.63S292.66,402,292.64,402.25Z"/><path class="cls-14" d="M292.68,394.32c0,.24-4.16.57-9.31.76s-9.33.14-9.34-.1,4.16-.57,9.31-.75S292.67,394.09,292.68,394.32Z"/><g class="cls-15"><path class="cls-14" d="M292,386.26c0,.24-4.16.58-9.31.76s-9.33.14-9.33-.09,4.15-.58,9.31-.76S292,386,292,386.26Z"/></g><path class="cls-14" d="M280.45,378.69a14.64,14.64,0,0,0,3,.23l7.16.23,7.15.26a13.13,13.13,0,0,0,3,0,12.46,12.46,0,0,0-2.95-.45c-1.82-.19-4.36-.37-7.16-.46s-5.34-.09-7.18,0A11.8,11.8,0,0,0,280.45,378.69Z"/><path class="cls-11" d="M426.26,150.82c3.31-8.08,13.82-11.75,22-8.75s13.67,11.42,14.65,20.09c.49,4.26-.05,8.82-2.5,12.34-2.58,3.71-7,5.82-11.48,6.45a22.85,22.85,0,0,1-24.16-31.69"/><path class="cls-16" d="M459.61,151.89A3.48,3.48,0,0,1,459,153a20.7,20.7,0,0,1-2.11,2.57,23.35,23.35,0,0,1-20.11,6.9,18.84,18.84,0,0,1-3.24-.73c-.75-.25-1.14-.43-1.12-.48s1.69.39,4.43.64a25,25,0,0,0,19.64-6.74C458.51,153.23,459.49,151.81,459.61,151.89Z"/><path class="cls-16" d="M463.09,161.1s-.28.34-.9.84a27.22,27.22,0,0,1-2.72,2,31.09,31.09,0,0,1-10.21,4.29,25.24,25.24,0,0,1-6.12.48,22.51,22.51,0,0,1-4.95-.81,18.74,18.74,0,0,1-3.15-1.18c-.72-.35-1.1-.56-1.07-.62s1.65.6,4.36,1.24a25.63,25.63,0,0,0,4.84.62,27,27,0,0,0,5.92-.53,35.32,35.32,0,0,0,10.08-4C461.6,162,463,161,463.09,161.1Z"/><path class="cls-11" d="M341.55,174.93c-19.39-42.65,26.73-64.08,51.9-57,23.65,6.68,33.74,18.45,37.63,34.27s3.71,33-2.49,48c-3.06,7.43-8.57,15-16.55,15.91"/><path class="cls-13" d="M364.71,280.33c-.33-20.38-.57-48.37-.58-48.25s-17.51-2.91-21.14-25.76c-1.81-11.37-1.23-30-.28-45.23.87-13.71,10-30.53,23.61-29.09L409,142.79a8,8,0,0,1,7.19,8.15h0l-2.78,88.22"/><path class="cls-11" d="M353.18,177.33a2.91,2.91,0,0,0,2.77,3,2.78,2.78,0,0,0,3-2.59,2.9,2.9,0,0,0-2.77-3A2.78,2.78,0,0,0,353.18,177.33Z"/><path class="cls-11" d="M384.78,177.33a2.92,2.92,0,0,0,2.78,3,2.78,2.78,0,0,0,3-2.59,2.91,2.91,0,0,0-2.77-3A2.79,2.79,0,0,0,384.78,177.33Z"/><path class="cls-11" d="M365.87,193.51c0-.18-1.95-.52-5.12-.93-.81-.08-1.57-.24-1.71-.79a4.12,4.12,0,0,1,.54-2.39l2.38-6.13c3.31-8.73,5.7-15.91,5.35-16s-3.32,6.84-6.63,15.57c-.79,2.16-1.55,4.21-2.28,6.17a4.7,4.7,0,0,0-.42,3.16,2,2,0,0,0,1.33,1.18,5.16,5.16,0,0,0,1.37.19C363.87,193.67,365.86,193.69,365.87,193.51Z"/><path class="cls-14" d="M364.09,232.17A58.18,58.18,0,0,0,394.7,224s-7.74,15.9-30.61,13.76Z"/><path class="cls-13" d="M411.81,179.77c.33-.16,12.23-5.42,12.37,8.26s-13.63,11-13.66,10.6S411.81,179.77,411.81,179.77Z"/><path class="cls-14" d="M414.65,193.41c.06,0,.24.16.64.34a2.36,2.36,0,0,0,1.79,0c1.44-.54,2.63-2.85,2.67-5.32a7.89,7.89,0,0,0-.7-3.4,2.74,2.74,0,0,0-1.81-1.81,1.21,1.21,0,0,0-1.4.66c-.18.39-.09.66-.16.68s-.3-.22-.2-.79a1.62,1.62,0,0,1,.53-.86,1.82,1.82,0,0,1,1.32-.36,3.36,3.36,0,0,1,2.51,2.09,8.1,8.1,0,0,1,.86,3.81c-.05,2.76-1.44,5.35-3.41,5.94a2.54,2.54,0,0,1-2.18-.34C414.68,193.74,414.6,193.43,414.65,193.41Z"/><path class="cls-14" d="M366.8,202.29a13.15,13.15,0,0,0,1.7,3.34,4.45,4.45,0,0,0,3.15,1.82,3.93,3.93,0,0,0,3.35-1.83,6.31,6.31,0,0,0,.94-3.82c-.05-1.2-.6-2.64-1.8-2.78a3,3,0,0,0-1.46.32l-6.29,2.55"/><path class="cls-11" d="M369.31,207.5c0-.2,1.42.36,3.36-.42a4.7,4.7,0,0,0,2.53-2.3,5.07,5.07,0,0,0,.09-4.12,4.83,4.83,0,0,0-.55-.94c-.25-.26-.2-.25-.48-.21s-.67.27-1,.4l-1,.42c-1.34.54-2.56,1-3.59,1.41-2.06.76-3.37,1.17-3.43,1s1.13-.81,3.11-1.77c1-.47,2.18-1,3.51-1.62l1-.46c.37-.15.65-.31,1.15-.47a1.45,1.45,0,0,1,.94,0,1.72,1.72,0,0,1,.69.54,5.58,5.58,0,0,1,.71,1.2,5.9,5.9,0,0,1-.19,5,5.37,5.37,0,0,1-3.2,2.58,5,5,0,0,1-2.72.11C369.58,207.77,369.29,207.56,369.31,207.5Z"/><path class="cls-16" d="M427.15,170.4c-1.4-.09-12.7,1.37-11.81,22.37.83,19.62,14.59,15.3,19,7.92C438.48,193.69,440.89,171.37,427.15,170.4Z"/><path class="cls-16" d="M434.13,172.89a3.48,3.48,0,0,1-.05-.56c0-.41,0-.94-.07-1.6,0-1.45-.09-3.47-.16-6-.11-5.16-.25-12.32-.42-20.6l.26.25h-5.83l.26-.27c.05,1.56.09,3.21.14,4.89.19,7.88.37,15.22.53,21.36v.19l-.17,0a10.5,10.5,0,0,0-6,3.86,13.94,13.94,0,0,0-2.4,5.07,20.61,20.61,0,0,0-.62,3.58c0,.42-.06.75-.07,1a1.39,1.39,0,0,1,0,.33,1.06,1.06,0,0,1,0-.33c0-.22,0-.54,0-1a18.33,18.33,0,0,1,.5-3.65,14,14,0,0,1,2.36-5.22,10.88,10.88,0,0,1,6.18-4.07l-.17.22c-.17-6.15-.38-13.49-.61-21.37-.05-1.67-.09-3.32-.13-4.89v-.27h6.35v.25c.09,8.28.17,15.45.23,20.61,0,2.51,0,4.53,0,6,0,.66,0,1.19,0,1.6A2.2,2.2,0,0,1,434.13,172.89Z"/><path class="cls-16" d="M427.15,144.15s-5.91-13.83-20-20.66a83.67,83.67,0,0,0-16.86-6.25s8.21-1.95,21.5,4c6,2.69,12.13,6.19,16.16,11.43,2.55,3.34,5.74,9.85,5.74,11.52Z"/><path class="cls-11" d="M425.64,206.55s-.14,0-.39-.11a6,6,0,0,1-1.05-.55,9.08,9.08,0,0,1-3-3.15,15.21,15.21,0,0,1-1.82-6.16,45.64,45.64,0,0,1,0-7.85,46.75,46.75,0,0,1,1.3-7.74,22.07,22.07,0,0,1,2.26-6,9.15,9.15,0,0,1,3-3.14,6.2,6.2,0,0,1,1.05-.54,1.47,1.47,0,0,1,.4-.11c0,.05-.52.24-1.34.82a9.51,9.51,0,0,0-2.77,3.16,22.82,22.82,0,0,0-2.11,5.93,52.51,52.51,0,0,0-1.25,7.67,48,48,0,0,0,0,7.76,15.34,15.34,0,0,0,1.66,6,9.54,9.54,0,0,0,2.75,3.17C425.13,206.31,425.67,206.5,425.64,206.55Z"/><rect class="cls-16" x="367.36" y="204.37" width="16.35" height="6.16" rx="1.7" transform="translate(-32.92 76.2) rotate(-11.1)"/><path class="cls-16" d="M382.11,205l48-15.06a2.25,2.25,0,0,1,2.83,1.47h0a2.25,2.25,0,0,1-1.56,2.87l-49.1,13.27Z"/><path class="cls-11" d="M417.6,198.35a10.16,10.16,0,0,1,1.59-.56l4.39-1.34c1.85-.57,4.11-1.17,6.5-1.95a4.19,4.19,0,0,0,1.57-1,2.39,2.39,0,0,0,.68-1.67,1.44,1.44,0,0,0-1-1.37,3.64,3.64,0,0,0-2,.06l-14.4,4.63-4.38,1.35a9.62,9.62,0,0,1-1.63.43,11.92,11.92,0,0,1,1.56-.62l4.34-1.51c3.67-1.25,8.71-3,14.38-4.79a4.21,4.21,0,0,1,2.31,0,2,2,0,0,1,1.34,1.86,2.88,2.88,0,0,1-.84,2,4.69,4.69,0,0,1-1.76,1.07c-2.48.79-4.69,1.33-6.56,1.86L419.25,198A11.91,11.91,0,0,1,417.6,198.35Z"/><path class="cls-14" d="M392.41,170.62c-.37.58-3.66-1.22-7.74-.48s-6.59,3.47-7.13,3.05c-.26-.18,0-1.19,1.1-2.43a10,10,0,0,1,11.91-2.06C392,169.5,392.59,170.36,392.41,170.62Z"/><path class="cls-11" d="M391.94,171.13a17.34,17.34,0,0,1-2.25-.57,12.49,12.49,0,0,0-5.41,0,12.36,12.36,0,0,0-4.87,2.34c-1.11.86-1.69,1.55-1.79,1.47s.34-.88,1.41-1.91A10.85,10.85,0,0,1,389.85,170,4.42,4.42,0,0,1,391.94,171.13Z"/><path class="cls-11" d="M394.05,161.94c-.33,1.1-3.83,1-8,1.22s-7.66.44-8.06-.63c-.18-.53.54-1.33,2-2a15.74,15.74,0,0,1,12-.45C393.42,160.66,394.19,161.41,394.05,161.94Z"/><path class="cls-14" d="M359.61,173c-.32.17-.93-.41-1.92-1.09a9.87,9.87,0,0,0-4.16-1.68c-3.54-.59-6.38,1.05-6.79.47-.19-.24.29-1,1.54-1.84a8.5,8.5,0,0,1,5.62-1,7.73,7.73,0,0,1,5,2.87C359.8,171.93,359.88,172.89,359.61,173Z"/><path class="cls-11" d="M360,174.73c-.11.07-.64-.71-1.75-1.69a11.38,11.38,0,0,0-5-2.59,11.51,11.51,0,0,0-5.66.26c-1.41.43-2.22.93-2.29.82s.65-.76,2.1-1.36a10.22,10.22,0,0,1,11.28,2.45C359.72,173.77,360.08,174.69,360,174.73Z"/><path class="cls-11" d="M361.42,163.31c-.21,1.13-3.54,1.45-7.5,1.49s-7.3-.25-7.52-1.37,3.1-2.68,7.49-2.71S361.63,162.22,361.42,163.31Z"/><path class="cls-11" d="M398.3,130.91c-2.47,3.72-5,7.51-6.26,11.79s-1.17,9.2,1.34,12.89c2.41,3.54,6.54,5.39,10.29,7.44s7.6,4.87,8.54,9.05c.29,1.3-.27,5.86.71,6.77,1.35,1.25,3.71.48,4.73-1s1.69-6.54,1.71-8.38l.24-17.08c.07-4.82,0-9.82-2.08-14.17-2.93-6.07-9-8-17.82-7.59"/><path class="cls-11" d="M342.2,165.18a32.23,32.23,0,0,1,6.48-16,23.67,23.67,0,0,1,14.62-8.76c5.76-.87,11.58.73,17.4,1.06s12.45-1.09,15.49-6.07c.94-1.55,1.39-3.72.18-5.07a5.18,5.18,0,0,0-1.71-1.12,43.79,43.79,0,0,0-24.91-4,34.42,34.42,0,0,0-21.82,12.2,28.36,28.36,0,0,0-5.53,24.09"/><path class="cls-16" d="M338.72,156.6a2.71,2.71,0,0,1-.27-.74,13.2,13.2,0,0,1-.47-2.23,19.21,19.21,0,0,1,.79-8.3,22,22,0,0,1,6.86-10.25,28.69,28.69,0,0,1,13.79-6.2,39,39,0,0,1,15.13.68,53.28,53.28,0,0,1,6.34,1.92c1.95.71,3.69,1.5,5.36,2,3.37.69,6.24,1.12,8.12.72a5.89,5.89,0,0,0,2.65-1.3s-.13.24-.52.6a4.84,4.84,0,0,1-2.06,1c-2,.51-4.85.17-8.34-.47-1.73-.43-3.51-1.2-5.44-1.88a53.05,53.05,0,0,0-6.28-1.81,38.78,38.78,0,0,0-14.83-.61,28.28,28.28,0,0,0-13.43,6,22,22,0,0,0-6.81,9.86,20.12,20.12,0,0,0-1,8.09C338.47,155.54,338.8,156.58,338.72,156.6Z"/><path class="cls-16" d="M364,120.66a4.73,4.73,0,0,1,1.44-.28,20.16,20.16,0,0,1,4,0,23.26,23.26,0,0,1,12.15,4.86c2,1.61,3.72,3.36,5.51,4.58a14.56,14.56,0,0,0,5.29,2.12,12,12,0,0,0,3.85.27c.91-.11,1.37-.36,1.4-.29a2.51,2.51,0,0,1-1.34.6,10.5,10.5,0,0,1-4,0,14.25,14.25,0,0,1-5.6-2.07c-1.9-1.24-3.63-3-5.59-4.56A24.39,24.39,0,0,0,369.36,121C366.08,120.51,364,120.82,364,120.66Z"/><path class="cls-16" d="M433.17,162.62c-.07,0-.31-.55-1-1.42a9.87,9.87,0,0,0-3.64-2.8,15.49,15.49,0,0,0-6.68-1.33,51.41,51.41,0,0,0-8.44,1.16,31,31,0,0,1-8.65.66,23.82,23.82,0,0,1-6.9-1.67,20.83,20.83,0,0,1-4.2-2.26,5.67,5.67,0,0,1-1.35-1.11,44.07,44.07,0,0,0,5.76,2.84,25,25,0,0,0,6.75,1.45,32.2,32.2,0,0,0,8.44-.71,48.36,48.36,0,0,1,8.59-1.12,15.46,15.46,0,0,1,6.94,1.58,9.31,9.31,0,0,1,3.63,3.12,5.9,5.9,0,0,1,.6,1.17C433.16,162.46,433.2,162.61,433.17,162.62Z"/><path class="cls-16" d="M430.7,151.65c-.07,0-.31-.54-1-1.38a9,9,0,0,0-3.65-2.57,13.66,13.66,0,0,0-6.6-.71c-2.54.25-5.27,1-8.23,1.58a17.66,17.66,0,0,1-8.51-.14,13.77,13.77,0,0,1-5.92-3.67,12.77,12.77,0,0,1-2.61-3.89,7.79,7.79,0,0,1-.41-1.21c-.08-.28-.1-.43-.07-.44a17.68,17.68,0,0,0,3.49,5.14,13.93,13.93,0,0,0,5.73,3.35,17.34,17.34,0,0,0,8.15,0c2.91-.54,5.68-1.3,8.31-1.51a13.66,13.66,0,0,1,6.89.92,8.63,8.63,0,0,1,3.68,2.91A3.71,3.71,0,0,1,430.7,151.65Z"/><path class="cls-11" d="M372,308.3a1.9,1.9,0,0,1,.29-.24l.87-.69a39.94,39.94,0,0,0,3.19-2.89,56.23,56.23,0,0,0,4.49-5.22c1.65-2.15,3.41-4.7,5.34-7.55C390,286,394.53,279.05,399.32,271q3.6-6,7.36-12.78c.62-1.13,1.24-2.28,1.88-3.43a22,22,0,0,1,2.14-3.41A7.62,7.62,0,0,1,414,249a4.1,4.1,0,0,1,2.12-.23,2,2,0,0,1,1,.55,2.35,2.35,0,0,1,.54,1l0,.08,0,.08a3.73,3.73,0,0,1-.74,1.29,2.14,2.14,0,0,1-1.37.66,4.44,4.44,0,0,1-2.72-.94,4.57,4.57,0,0,1-1.74-5.34,4,4,0,0,1,2-2.28,4.55,4.55,0,0,1,3-.41,3.16,3.16,0,0,1,2.41,1.87,1.61,1.61,0,0,1-.35,1.66,2.94,2.94,0,0,1-1.41.77,4.16,4.16,0,0,1-4.59-2.1,3.7,3.7,0,0,1-.27-2.69,4.47,4.47,0,0,1,1.39-2.27,3.63,3.63,0,0,1,2.44-.95A2.89,2.89,0,0,1,418,241a1.9,1.9,0,0,1,.29,1.38,1.85,1.85,0,0,1-.76,1.18,2.8,2.8,0,0,1-2.55.32,3.14,3.14,0,0,1-1.72-1.89,7.09,7.09,0,0,1-.38-2.48,8.78,8.78,0,0,1,1.23-4.72,3.57,3.57,0,0,1,2-1.48,3.1,3.1,0,0,1,2.36.42,2.33,2.33,0,0,1,1.19,2.12,2.16,2.16,0,0,1-1.56,1.83,2.52,2.52,0,0,1-2.3-.38,3.22,3.22,0,0,1-1.16-2,4.68,4.68,0,0,1,.19-2.27,10.35,10.35,0,0,1,.78-2.07,3.89,3.89,0,0,1,1.48-1.63,4.77,4.77,0,0,1,2-.69,2.06,2.06,0,0,1,1.11.15,2.55,2.55,0,0,1,.83.73,2.75,2.75,0,0,1,.45,1,1.52,1.52,0,0,1-.13,1.14,1.81,1.81,0,0,1-1.94.76,3.31,3.31,0,0,1-1.78-.93,5.33,5.33,0,0,1-1.54-3.53,5.6,5.6,0,0,1,1-3.6,4.4,4.4,0,0,1,1.33-1.25,3.71,3.71,0,0,1,1.7-.47,2.58,2.58,0,0,1,1.67.5,1.85,1.85,0,0,1,.71,1.59,2.59,2.59,0,0,1-2.25,2.19,2.76,2.76,0,0,1-2.57-1.45,4.54,4.54,0,0,1-.64-2.78c.19-1.89,1.14-3.35,1.7-4.78s1.2-2.71,1.71-3.88l2.38-5.37.63-1.39.23-.46s-.05.17-.18.49l-.58,1.41c-.54,1.26-1.31,3.07-2.29,5.4-.5,1.18-1.06,2.48-1.67,3.9s-1.48,2.93-1.64,4.7a4.33,4.33,0,0,0,.62,2.58,2.41,2.41,0,0,0,2.26,1.29,2.25,2.25,0,0,0,1.93-1.88,1.48,1.48,0,0,0-.57-1.27,2.3,2.3,0,0,0-1.44-.41,3.5,3.5,0,0,0-1.53.44,3.91,3.91,0,0,0-1.2,1.13,5.3,5.3,0,0,0-.86,3.34,4.91,4.91,0,0,0,1.41,3.24,2.87,2.87,0,0,0,1.57.81,1.37,1.37,0,0,0,1.49-.54,1.61,1.61,0,0,0-.3-1.64,1.91,1.91,0,0,0-.67-.6,1.64,1.64,0,0,0-.87-.1,3.88,3.88,0,0,0-3.14,2.09,10.51,10.51,0,0,0-.73,2,4.2,4.2,0,0,0-.18,2,2.79,2.79,0,0,0,1,1.72,2.06,2.06,0,0,0,1.87.29,1.66,1.66,0,0,0,1.21-1.39,1.81,1.81,0,0,0-1-1.64,2.65,2.65,0,0,0-2-.36,3.11,3.11,0,0,0-1.67,1.28,8.28,8.28,0,0,0-1.13,4.42,6.44,6.44,0,0,0,.35,2.28,2.65,2.65,0,0,0,1.42,1.59,2.3,2.3,0,0,0,2.07-.25,1.33,1.33,0,0,0,.34-1.84,2.4,2.4,0,0,0-1.9-1,3.07,3.07,0,0,0-2.08.82,3.48,3.48,0,0,0,3,6.12,2.46,2.46,0,0,0,1.15-.61,1.05,1.05,0,0,0,.23-1.11,2.65,2.65,0,0,0-2-1.52,3.79,3.79,0,0,0-4.36,2.34,4.06,4.06,0,0,0,1.54,4.72,4,4,0,0,0,2.39.85,2,2,0,0,0,1.66-1.59v.15a1.52,1.52,0,0,0-1.16-1.2,3.67,3.67,0,0,0-1.84.21,7,7,0,0,0-3.11,2.25,20.73,20.73,0,0,0-2.09,3.33l-1.89,3.42c-2.51,4.51-5,8.78-7.4,12.78-4.82,8-9.37,14.94-13.26,20.63-1.95,2.84-3.73,5.39-5.41,7.52a52.46,52.46,0,0,1-4.57,5.19A27,27,0,0,1,372,308.3Z"/></svg>